<?xml version="1.0" encoding="UTF-8" standalone="no"?>
<!DOCTYPE svg PUBLIC "-//W3C//DTD SVG 1.1//EN"
 "http://www.w3.org/Graphics/SVG/1.1/DTD/svg11.dtd">
<!-- Generated by graphviz version 2.43.0 (0)
 -->
<!-- Title: Flow Pages: 1 -->
<svg width="731pt" height="704pt"
 viewBox="0.00 0.00 731.00 704.00" xmlns="http://www.w3.org/2000/svg" xmlns:xlink="http://www.w3.org/1999/xlink">
<g id="graph0" class="graph" transform="scale(1 1) rotate(0) translate(4 700)">
<title>Flow</title>
<polygon fill="white" stroke="transparent" points="-4,4 -4,-700 727,-700 727,4 -4,4"/>
<text text-anchor="middle" x="361.5" y="-7.2" font-family="Helvetica,sans-Serif" font-size="11.00" fill="#444441">Fictitious example: one scheduled visit to the Garcia Residence, from calendar entry through harvest to two recipient drop&#45;offs.</text>
<!-- EVENT -->
<g id="node1" class="node">
<title>EVENT</title>
<polygon fill="#185fa5" stroke="transparent" points="321.5,-671 321.5,-695 432.5,-695 432.5,-671 321.5,-671"/>
<text text-anchor="start" x="359" y="-681.2" font-family="Helvetica,sans-Serif" font-weight="bold" font-size="11.00" fill="white">Event</text>
<text text-anchor="start" x="327.5" y="-657.8" font-family="Helvetica,sans-Serif" font-size="9.00" fill="#444441">existing object</text>
<text text-anchor="start" x="327.5" y="-634.2" font-family="Helvetica,sans-Serif" font-size="11.00">Sat 7/18, 8:00 AM</text>
<polygon fill="none" stroke="#185fa5" points="320,-624 320,-696 433,-696 433,-624 320,-624"/>
</g>
<!-- HARVEST -->
<g id="node2" class="node">
<title>HARVEST</title>
<polygon fill="#0f6e56" stroke="transparent" points="307.5,-544 307.5,-568 446.5,-568 446.5,-544 307.5,-544"/>
<text text-anchor="start" x="352.5" y="-554.2" font-family="Helvetica,sans-Serif" font-weight="bold" font-size="11.00" fill="white">Harvest</text>
<text text-anchor="start" x="313.5" y="-530.8" font-family="Helvetica,sans-Serif" font-size="9.00" fill="#444441">new object</text>
<text text-anchor="start" x="313.5" y="-507.2" font-family="Helvetica,sans-Serif" font-size="11.00">Garcia Residence, 7/18</text>
<text text-anchor="start" x="313.5" y="-483.2" font-family="Helvetica,sans-Serif" font-size="11.00">Lead: Maria Chen</text>
<polygon fill="none" stroke="#0f6e56" points="306,-473 306,-569 447,-569 447,-473 306,-473"/>
</g>
<!-- EVENT&#45;&gt;HARVEST -->
<g id="edge1" class="edge">
<title>EVENT&#45;&gt;HARVEST</title>
<path fill="none" stroke="#73726c" d="M376.5,-623.72C376.5,-609.54 376.5,-592.86 376.5,-577.15"/>
<polygon fill="#73726c" stroke="#73726c" points="379.3,-577.04 376.5,-569.04 373.7,-577.04 379.3,-577.04"/>
<text text-anchor="middle" x="419.5" y="-594" font-family="Helvetica,sans-Serif" font-size="10.00" fill="#444441">syncs to calendar</text>
</g>
<!-- VOLSHIFT -->
<g id="node3" class="node">
<title>VOLSHIFT</title>
<polygon fill="#185fa5" stroke="transparent" points="555.5,-532 555.5,-556 677.5,-556 677.5,-532 555.5,-532"/>
<text text-anchor="start" x="569.5" y="-542.2" font-family="Helvetica,sans-Serif" font-weight="bold" font-size="11.00" fill="white">Volunteer Shift</text>
<text text-anchor="start" x="561.5" y="-518.8" font-family="Helvetica,sans-Serif" font-size="9.00" fill="#444441">existing — V4S package</text>
<text text-anchor="start" x="561.5" y="-495.2" font-family="Helvetica,sans-Serif" font-size="11.00">4 volunteers logged</text>
<polygon fill="none" stroke="#185fa5" points="554.5,-485 554.5,-557 678.5,-557 678.5,-485 554.5,-485"/>
</g>
<!-- HARVEST&#45;&gt;VOLSHIFT -->
<g id="edge2" class="edge">
<title>HARVEST&#45;&gt;VOLSHIFT</title>
<path fill="none" stroke="#73726c" stroke-dasharray="5,2" d="M447.21,-521C478.43,-521 515.05,-521 546.22,-521"/>
<polygon fill="#73726c" stroke="#73726c" points="546.44,-523.8 554.44,-521 546.44,-518.2 546.44,-523.8"/>
<text text-anchor="middle" x="500.75" y="-527" font-family="Helvetica,sans-Serif" font-size="10.00" fill="#444441">attendance for</text>
</g>
<!-- HARVESTITEM -->
<g id="node4" class="node">
<title>HARVESTITEM</title>
<polygon fill="#0f6e56" stroke="transparent" points="292.5,-393 292.5,-417 461.5,-417 461.5,-393 292.5,-393"/>
<text text-anchor="start" x="336.5" y="-403.2" font-family="Helvetica,sans-Serif" font-weight="bold" font-size="11.00" fill="white">Harvest Item</text>
<text text-anchor="start" x="298.5" y="-379.8" font-family="Helvetica,sans-Serif" font-size="9.00" fill="#444441">new object</text>
<text text-anchor="start" x="298.5" y="-356.2" font-family="Helvetica,sans-Serif" font-size="11.00">Pomegranate, backyard tree</text>
<text text-anchor="start" x="298.5" y="-332.2" font-family="Helvetica,sans-Serif" font-size="11.00">62 lbs harvested</text>
<text text-anchor="start" x="298.5" y="-308.2" font-family="Helvetica,sans-Serif" font-size="11.00">45 distribution&#45;quality</text>
<polygon fill="none" stroke="#0f6e56" points="291,-298 291,-418 462,-418 462,-298 291,-298"/>
</g>
<!-- HARVEST&#45;&gt;HARVESTITEM -->
<g id="edge3" class="edge">
<title>HARVEST&#45;&gt;HARVESTITEM</title>
<path fill="none" stroke="#73726c" d="M376.5,-473C376.5,-458.38 376.5,-441.96 376.5,-426.24"/>
<polygon fill="#73726c" stroke="#73726c" points="379.3,-426.09 376.5,-418.09 373.7,-426.09 379.3,-426.09"/>
<text text-anchor="middle" x="423" y="-443" font-family="Helvetica,sans-Serif" font-size="10.00" fill="#444441">per tree / fruit type</text>
</g>
<!-- OTHER -->
<g id="node5" class="node">
<title>OTHER</title>
<polygon fill="#888780" stroke="transparent" points="45.5,-195 45.5,-219 251.5,-219 251.5,-195 45.5,-195"/>
<text text-anchor="start" x="88" y="-205.2" font-family="Helvetica,sans-Serif" font-weight="bold" font-size="11.00" fill="white">Kept at the harvest</text>
<text text-anchor="start" x="51.5" y="-180.2" font-family="Helvetica,sans-Serif" font-size="11.00">17 lbs: first&#45;use, pet feed, compost</text>
<polygon fill="none" stroke="#888780" points="44.5,-170 44.5,-220 252.5,-220 252.5,-170 44.5,-170"/>
</g>
<!-- HARVESTITEM&#45;&gt;OTHER -->
<g id="edge4" class="edge">
<title>HARVESTITEM&#45;&gt;OTHER</title>
<path fill="none" stroke="#73726c" stroke-dasharray="5,2" d="M292.9,-297.96C257.6,-273.04 218.11,-245.15 189.36,-224.85"/>
<polygon fill="#73726c" stroke="#73726c" points="190.81,-222.45 182.66,-220.12 187.58,-227.02 190.81,-222.45"/>
<text text-anchor="middle" x="304" y="-268" font-family="Helvetica,sans-Serif" font-size="10.00" fill="#444441">non&#45;distribution lbs</text>
</g>
<!-- DROPOFF_A -->
<g id="node6" class="node">
<title>DROPOFF_A</title>
<polygon fill="#993c1d" stroke="transparent" points="289.5,-218 289.5,-242 463.5,-242 463.5,-218 289.5,-218"/>
<text text-anchor="start" x="350.5" y="-228.2" font-family="Helvetica,sans-Serif" font-weight="bold" font-size="11.00" fill="white">Drop Off</text>
<text text-anchor="start" x="295.5" y="-204.8" font-family="Helvetica,sans-Serif" font-size="9.00" fill="#444441">new object</text>
<text text-anchor="start" x="295.5" y="-181.2" font-family="Helvetica,sans-Serif" font-size="11.00">Iskashitaa Community Pantry</text>
<text text-anchor="start" x="295.5" y="-157.2" font-family="Helvetica,sans-Serif" font-size="11.00">30 lbs, 7/18</text>
<polygon fill="none" stroke="#993c1d" points="288.5,-147 288.5,-243 464.5,-243 464.5,-147 288.5,-147"/>
</g>
<!-- HARVESTITEM&#45;&gt;DROPOFF_A -->
<g id="edge5" class="edge">
<title>HARVESTITEM&#45;&gt;DROPOFF_A</title>
<path fill="none" stroke="#73726c" d="M376.5,-297.96C376.5,-282.74 376.5,-266.42 376.5,-251.39"/>
<polygon fill="#73726c" stroke="#73726c" points="379.3,-251.19 376.5,-243.19 373.7,-251.19 379.3,-251.19"/>
<text text-anchor="middle" x="413" y="-268" font-family="Helvetica,sans-Serif" font-size="10.00" fill="#444441">distribution lbs</text>
</g>
<!-- DROPOFF_B -->
<g id="node7" class="node">
<title>DROPOFF_B</title>
<polygon fill="#993c1d" stroke="transparent" points="501.5,-218 501.5,-242 637.5,-242 637.5,-218 501.5,-218"/>
<text text-anchor="start" x="543.5" y="-228.2" font-family="Helvetica,sans-Serif" font-weight="bold" font-size="11.00" fill="white">Drop Off</text>
<text text-anchor="start" x="507.5" y="-204.8" font-family="Helvetica,sans-Serif" font-size="9.00" fill="#444441">new object</text>
<text text-anchor="start" x="507.5" y="-181.2" font-family="Helvetica,sans-Serif" font-size="11.00">St. Mark&#39;s Food Pantry</text>
<text text-anchor="start" x="507.5" y="-157.2" font-family="Helvetica,sans-Serif" font-size="11.00">15 lbs, 7/19</text>
<polygon fill="none" stroke="#993c1d" points="500.5,-147 500.5,-243 638.5,-243 638.5,-147 500.5,-147"/>
</g>
<!-- HARVESTITEM&#45;&gt;DROPOFF_B -->
<g id="edge6" class="edge">
<title>HARVESTITEM&#45;&gt;DROPOFF_B</title>
<path fill="none" stroke="#73726c" d="M447.27,-297.96C466.7,-281.76 487.63,-264.3 506.58,-248.49"/>
<polygon fill="#73726c" stroke="#73726c" points="508.58,-250.47 512.93,-243.19 504.99,-246.17 508.58,-250.47"/>
<text text-anchor="middle" x="522" y="-268" font-family="Helvetica,sans-Serif" font-size="10.00" fill="#444441">distribution lbs</text>
</g>
<!-- DROPOFFITEM_A -->
<g id="node8" class="node">
<title>DROPOFFITEM_A</title>
<polygon fill="#993c1d" stroke="transparent" points="313.5,-67 313.5,-91 439.5,-91 439.5,-67 313.5,-67"/>
<text text-anchor="start" x="335" y="-77.2" font-family="Helvetica,sans-Serif" font-weight="bold" font-size="11.00" fill="white">Drop Off Item</text>
<text text-anchor="start" x="319.5" y="-53.8" font-family="Helvetica,sans-Serif" font-size="9.00" fill="#444441">new object</text>
<text text-anchor="start" x="319.5" y="-30.2" font-family="Helvetica,sans-Serif" font-size="11.00">Pomegranate, 30 lbs</text>
<polygon fill="none" stroke="#993c1d" points="312.5,-20 312.5,-92 440.5,-92 440.5,-20 312.5,-20"/>
</g>
<!-- DROPOFF_A&#45;&gt;DROPOFFITEM_A -->
<g id="edge7" class="edge">
<title>DROPOFF_A&#45;&gt;DROPOFFITEM_A</title>
<path fill="none" stroke="#73726c" d="M376.5,-146.85C376.5,-131.7 376.5,-115 376.5,-100.15"/>
<polygon fill="#73726c" stroke="#73726c" points="379.3,-100.11 376.5,-92.11 373.7,-100.11 379.3,-100.11"/>
<text text-anchor="middle" x="397.5" y="-117" font-family="Helvetica,sans-Serif" font-size="10.00" fill="#444441">contains</text>
</g>
<!-- DROPOFFITEM_B -->
<g id="node9" class="node">
<title>DROPOFFITEM_B</title>
<polygon fill="#993c1d" stroke="transparent" points="506.5,-67 506.5,-91 632.5,-91 632.5,-67 506.5,-67"/>
<text text-anchor="start" x="528" y="-77.2" font-family="Helvetica,sans-Serif" font-weight="bold" font-size="11.00" fill="white">Drop Off Item</text>
<text text-anchor="start" x="512.5" y="-53.8" font-family="Helvetica,sans-Serif" font-size="9.00" fill="#444441">new object</text>
<text text-anchor="start" x="512.5" y="-30.2" font-family="Helvetica,sans-Serif" font-size="11.00">Pomegranate, 15 lbs</text>
<polygon fill="none" stroke="#993c1d" points="505.5,-20 505.5,-92 633.5,-92 633.5,-20 505.5,-20"/>
</g>
<!-- DROPOFF_B&#45;&gt;DROPOFFITEM_B -->
<g id="edge8" class="edge">
<title>DROPOFF_B&#45;&gt;DROPOFFITEM_B</title>
<path fill="none" stroke="#73726c" d="M569.5,-146.85C569.5,-131.7 569.5,-115 569.5,-100.15"/>
<polygon fill="#73726c" stroke="#73726c" points="572.3,-100.11 569.5,-92.11 566.7,-100.11 572.3,-100.11"/>
<text text-anchor="middle" x="590.5" y="-117" font-family="Helvetica,sans-Serif" font-size="10.00" fill="#444441">contains</text>
</g>
</g>
</svg>
