<?xml version="1.0" encoding="UTF-8" standalone="no"?>
<!DOCTYPE svg PUBLIC "-//W3C//DTD SVG 1.1//EN"
 "http://www.w3.org/Graphics/SVG/1.1/DTD/svg11.dtd">
<!-- Generated by graphviz version 2.43.0 (0)
 -->
<!-- Title: ERD Pages: 1 -->
<svg width="759pt" height="672pt"
 viewBox="0.00 0.00 759.00 672.00" xmlns="http://www.w3.org/2000/svg" xmlns:xlink="http://www.w3.org/1999/xlink">
<g id="graph0" class="graph" transform="scale(1 1) rotate(0) translate(4 668)">
<title>ERD</title>
<polygon fill="white" stroke="transparent" points="-4,4 -4,-668 755,-668 755,4 -4,4"/>
<!-- ACCOUNT -->
<g id="node1" class="node">
<title>ACCOUNT</title>
<polygon fill="#185fa5" stroke="transparent" points="2.5,-367 2.5,-389 175.5,-389 175.5,-367 2.5,-367"/>
<text text-anchor="start" x="64" y="-376.2" font-family="Helvetica,sans-Serif" font-weight="bold" font-size="11.00" fill="white">Account</text>
<text text-anchor="start" x="7.5" y="-354.8" font-family="Helvetica,sans-Serif" font-size="9.00" fill="#444441">existing — Property &amp; Recipient Org</text>
<text text-anchor="start" x="7.5" y="-333.2" font-family="Helvetica,sans-Serif" font-size="11.00">name</text>
<text text-anchor="start" x="7.5" y="-311.2" font-family="Helvetica,sans-Serif" font-size="11.00">record_type</text>
<text text-anchor="start" x="7.5" y="-289.2" font-family="Helvetica,sans-Serif" font-size="11.00">access_notes</text>
<text text-anchor="start" x="7.5" y="-267.2" font-family="Helvetica,sans-Serif" font-size="11.00">preferred_contact_method</text>
<polygon fill="none" stroke="#185fa5" points="1,-258 1,-390 176,-390 176,-258 1,-258"/>
</g>
<!-- TREE -->
<g id="node6" class="node">
<title>TREE</title>
<polygon fill="#0f6e56" stroke="transparent" points="337.5,-356 337.5,-378 435.5,-378 435.5,-356 337.5,-356"/>
<text text-anchor="start" x="373" y="-365.2" font-family="Helvetica,sans-Serif" font-weight="bold" font-size="11.00" fill="white">Tree</text>
<text text-anchor="start" x="342.5" y="-343.8" font-family="Helvetica,sans-Serif" font-size="9.00" fill="#444441">new</text>
<text text-anchor="start" x="342.5" y="-322.2" font-family="Helvetica,sans-Serif" font-size="11.00">location</text>
<text text-anchor="start" x="342.5" y="-300.2" font-family="Helvetica,sans-Serif" font-size="11.00">ladder_required</text>
<text text-anchor="start" x="342.5" y="-278.2" font-family="Helvetica,sans-Serif" font-size="11.00">estimated_yield</text>
<polygon fill="none" stroke="#0f6e56" points="336.5,-269 336.5,-379 436.5,-379 436.5,-269 336.5,-269"/>
</g>
<!-- ACCOUNT&#45;&gt;TREE -->
<g id="edge1" class="edge">
<title>ACCOUNT&#45;&gt;TREE</title>
<path fill="none" stroke="#73726c" d="M176.31,-324C225.19,-324 284.88,-324 327.96,-324"/>
<polygon fill="#73726c" stroke="#73726c" points="328.08,-324 336.08,-327.6 332.08,-324 336.08,-324 336.08,-324 336.08,-324 332.08,-324 336.08,-320.4 328.08,-324 328.08,-324"/>
<text text-anchor="middle" x="255.5" y="-327" font-family="Helvetica,sans-Serif" font-size="10.00" fill="#444441">Property has</text>
</g>
<!-- HARVEST -->
<g id="node7" class="node">
<title>HARVEST</title>
<polygon fill="#0f6e56" stroke="transparent" points="345.5,-206 345.5,-228 428.5,-228 428.5,-206 345.5,-206"/>
<text text-anchor="start" x="362.5" y="-215.2" font-family="Helvetica,sans-Serif" font-weight="bold" font-size="11.00" fill="white">Harvest</text>
<text text-anchor="start" x="350.5" y="-193.8" font-family="Helvetica,sans-Serif" font-size="9.00" fill="#444441">new</text>
<text text-anchor="start" x="350.5" y="-172.2" font-family="Helvetica,sans-Serif" font-size="11.00">harvest_date</text>
<text text-anchor="start" x="350.5" y="-150.2" font-family="Helvetica,sans-Serif" font-size="11.00">status</text>
<text text-anchor="start" x="350.5" y="-128.2" font-family="Helvetica,sans-Serif" font-size="11.00">total_lbs</text>
<polygon fill="none" stroke="#0f6e56" points="344,-119 344,-229 429,-229 429,-119 344,-119"/>
</g>
<!-- ACCOUNT&#45;&gt;HARVEST -->
<g id="edge2" class="edge">
<title>ACCOUNT&#45;&gt;HARVEST</title>
<path fill="none" stroke="#73726c" d="M176.31,-280.01C228.56,-253.53 293.15,-220.8 336.63,-198.77"/>
<polygon fill="#73726c" stroke="#73726c" points="336.82,-198.67 345.58,-198.26 340.39,-196.86 343.96,-195.05 343.96,-195.05 343.96,-195.05 340.39,-196.86 342.33,-191.84 336.82,-198.67 336.82,-198.67"/>
<text text-anchor="middle" x="255.5" y="-265" font-family="Helvetica,sans-Serif" font-size="10.00" fill="#444441">Property hosts</text>
</g>
<!-- DROP_OFF -->
<g id="node9" class="node">
<title>DROP_OFF</title>
<polygon fill="#993c1d" stroke="transparent" points="335.5,-506 335.5,-528 438.5,-528 438.5,-506 335.5,-506"/>
<text text-anchor="start" x="361" y="-515.2" font-family="Helvetica,sans-Serif" font-weight="bold" font-size="11.00" fill="white">Drop Off</text>
<text text-anchor="start" x="340.5" y="-493.8" font-family="Helvetica,sans-Serif" font-size="9.00" fill="#444441">new</text>
<text text-anchor="start" x="340.5" y="-472.2" font-family="Helvetica,sans-Serif" font-size="11.00">dropoff_date</text>
<text text-anchor="start" x="340.5" y="-450.2" font-family="Helvetica,sans-Serif" font-size="11.00">total_lbs</text>
<text text-anchor="start" x="340.5" y="-428.2" font-family="Helvetica,sans-Serif" font-size="11.00">distribution_type</text>
<polygon fill="none" stroke="#993c1d" points="334,-419 334,-529 439,-529 439,-419 334,-419"/>
</g>
<!-- ACCOUNT&#45;&gt;DROP_OFF -->
<g id="edge3" class="edge">
<title>ACCOUNT&#45;&gt;DROP_OFF</title>
<path fill="none" stroke="#73726c" d="M163.64,-390.04C178.34,-401.07 194.15,-411.64 210,-420 246.56,-439.3 291.12,-452.9 326.19,-461.63"/>
<polygon fill="#73726c" stroke="#73726c" points="326.21,-461.63 333.13,-467.02 330.09,-462.58 333.98,-463.52 333.98,-463.52 333.98,-463.52 330.09,-462.58 334.83,-460.03 326.21,-461.63 326.21,-461.63"/>
<text text-anchor="middle" x="255.5" y="-457" font-family="Helvetica,sans-Serif" font-size="10.00" fill="#444441">Recipient receives</text>
</g>
<!-- CONTACT -->
<g id="node2" class="node">
<title>CONTACT</title>
<polygon fill="#185fa5" stroke="transparent" points="1.5,-173 1.5,-195 176.5,-195 176.5,-173 1.5,-173"/>
<text text-anchor="start" x="64.5" y="-182.2" font-family="Helvetica,sans-Serif" font-weight="bold" font-size="11.00" fill="white">Contact</text>
<text text-anchor="start" x="6.5" y="-160.8" font-family="Helvetica,sans-Serif" font-size="9.00" fill="#444441">existing — Volunteer &amp; Harvest Lead</text>
<text text-anchor="start" x="6.5" y="-139.2" font-family="Helvetica,sans-Serif" font-size="11.00">name</text>
<text text-anchor="start" x="6.5" y="-117.2" font-family="Helvetica,sans-Serif" font-size="11.00">progression_step</text>
<text text-anchor="start" x="6.5" y="-95.2" font-family="Helvetica,sans-Serif" font-size="11.00">refugee_participant</text>
<polygon fill="none" stroke="#185fa5" points="0,-86 0,-196 177,-196 177,-86 0,-86"/>
</g>
<!-- VOLUNTEER_SHIFT -->
<g id="node4" class="node">
<title>VOLUNTEER_SHIFT</title>
<polygon fill="#185fa5" stroke="transparent" points="604,-65 604,-87 724,-87 724,-65 604,-65"/>
<text text-anchor="start" x="617" y="-74.2" font-family="Helvetica,sans-Serif" font-weight="bold" font-size="11.00" fill="white">Volunteer Shift</text>
<text text-anchor="start" x="609" y="-52.8" font-family="Helvetica,sans-Serif" font-size="9.00" fill="#444441">existing — V4S package</text>
<text text-anchor="start" x="609" y="-31.2" font-family="Helvetica,sans-Serif" font-size="11.00">shift_date</text>
<text text-anchor="start" x="609" y="-9.2" font-family="Helvetica,sans-Serif" font-size="11.00">hours</text>
<polygon fill="none" stroke="#185fa5" points="603,0 603,-88 725,-88 725,0 603,0"/>
</g>
<!-- CONTACT&#45;&gt;VOLUNTEER_SHIFT -->
<g id="edge5" class="edge">
<title>CONTACT&#45;&gt;VOLUNTEER_SHIFT</title>
<path fill="none" stroke="#73726c" d="M177.15,-120.21C223.59,-109.65 281.7,-97.15 334,-88 423.55,-72.33 527.66,-59.27 594.39,-51.54"/>
<polygon fill="#73726c" stroke="#73726c" points="594.79,-51.5 603.15,-54.16 598.77,-51.04 602.74,-50.58 602.74,-50.58 602.74,-50.58 598.77,-51.04 602.33,-47.01 594.79,-51.5 594.79,-51.5"/>
<text text-anchor="middle" x="386.5" y="-91" font-family="Helvetica,sans-Serif" font-size="10.00" fill="#444441">logs</text>
</g>
<!-- CONTACT&#45;&gt;HARVEST -->
<g id="edge4" class="edge">
<title>CONTACT&#45;&gt;HARVEST</title>
<path fill="none" stroke="#73726c" d="M177.11,-150.77C228.84,-156.53 292.45,-163.63 335.69,-168.45"/>
<polygon fill="#73726c" stroke="#73726c" points="335.83,-168.46 343.39,-172.93 339.81,-168.91 343.78,-169.35 343.78,-169.35 343.78,-169.35 339.81,-168.91 344.18,-165.77 335.83,-168.46 335.83,-168.46"/>
<text text-anchor="middle" x="255.5" y="-167" font-family="Helvetica,sans-Serif" font-size="10.00" fill="#444441">leads</text>
</g>
<!-- EVENT -->
<g id="node3" class="node">
<title>EVENT</title>
<polygon fill="#185fa5" stroke="transparent" points="578,-215 578,-237 750,-237 750,-215 578,-215"/>
<text text-anchor="start" x="646" y="-224.2" font-family="Helvetica,sans-Serif" font-weight="bold" font-size="11.00" fill="white">Event</text>
<text text-anchor="start" x="583" y="-202.8" font-family="Helvetica,sans-Serif" font-size="9.00" fill="#444441">existing — calendar sync</text>
<text text-anchor="start" x="583" y="-181.2" font-family="Helvetica,sans-Serif" font-size="11.00">subject</text>
<text text-anchor="start" x="583" y="-159.2" font-family="Helvetica,sans-Serif" font-size="11.00">start_date</text>
<text text-anchor="start" x="583" y="-137.2" font-family="Helvetica,sans-Serif" font-size="11.00">related_harvest (new lookup)</text>
<polygon fill="none" stroke="#185fa5" points="577,-128 577,-238 751,-238 751,-128 577,-128"/>
</g>
<!-- FRUIT_TYPE -->
<g id="node5" class="node">
<title>FRUIT_TYPE</title>
<polygon fill="#0f6e56" stroke="transparent" points="34.5,-630 34.5,-652 142.5,-652 142.5,-630 34.5,-630"/>
<text text-anchor="start" x="58" y="-639.2" font-family="Helvetica,sans-Serif" font-weight="bold" font-size="11.00" fill="white">Fruit Type</text>
<text text-anchor="start" x="39.5" y="-617.8" font-family="Helvetica,sans-Serif" font-size="9.00" fill="#444441">new — shared lookup</text>
<text text-anchor="start" x="39.5" y="-596.2" font-family="Helvetica,sans-Serif" font-size="11.00">fruit_name</text>
<text text-anchor="start" x="39.5" y="-574.2" font-family="Helvetica,sans-Serif" font-size="11.00">season</text>
<polygon fill="none" stroke="#0f6e56" points="33.5,-565 33.5,-653 143.5,-653 143.5,-565 33.5,-565"/>
</g>
<!-- FRUIT_TYPE&#45;&gt;TREE -->
<g id="edge10" class="edge">
<title>FRUIT_TYPE&#45;&gt;TREE</title>
<path fill="none" stroke="#73726c" d="M105.04,-564.88C123.52,-518.11 158.49,-444.81 210,-399 243.75,-368.99 291.31,-349.67 328.41,-338.17"/>
<polygon fill="#73726c" stroke="#73726c" points="328.5,-338.15 337.2,-339.28 332.33,-336.99 336.16,-335.84 336.16,-335.84 336.16,-335.84 332.33,-336.99 335.12,-332.39 328.5,-338.15 328.5,-338.15"/>
<text text-anchor="middle" x="255.5" y="-402" font-family="Helvetica,sans-Serif" font-size="10.00" fill="#444441">grown as</text>
</g>
<!-- HARVEST_ITEM -->
<g id="node8" class="node">
<title>HARVEST_ITEM</title>
<polygon fill="#0f6e56" stroke="transparent" points="596,-409 596,-431 733,-431 733,-409 596,-409"/>
<text text-anchor="start" x="624" y="-418.2" font-family="Helvetica,sans-Serif" font-weight="bold" font-size="11.00" fill="white">Harvest Item</text>
<text text-anchor="start" x="601" y="-396.8" font-family="Helvetica,sans-Serif" font-size="9.00" fill="#444441">new</text>
<text text-anchor="start" x="601" y="-375.2" font-family="Helvetica,sans-Serif" font-size="11.00">lbs_harvested</text>
<text text-anchor="start" x="601" y="-353.2" font-family="Helvetica,sans-Serif" font-size="11.00">lbs_distribution_quality</text>
<text text-anchor="start" x="601" y="-331.2" font-family="Helvetica,sans-Serif" font-size="11.00">lbs_first_use</text>
<text text-anchor="start" x="601" y="-309.2" font-family="Helvetica,sans-Serif" font-size="11.00">lbs_pet_feed</text>
<text text-anchor="start" x="601" y="-287.2" font-family="Helvetica,sans-Serif" font-size="11.00">lbs_compost</text>
<polygon fill="none" stroke="#0f6e56" points="594.5,-278 594.5,-432 733.5,-432 733.5,-278 594.5,-278"/>
</g>
<!-- FRUIT_TYPE&#45;&gt;HARVEST_ITEM -->
<g id="edge11" class="edge">
<title>FRUIT_TYPE&#45;&gt;HARVEST_ITEM</title>
<path fill="none" stroke="#73726c" d="M143.59,-610.85C249.43,-613.48 479.23,-613.99 544,-572 590.53,-541.83 620.39,-486.93 638.56,-439.89"/>
<polygon fill="#73726c" stroke="#73726c" points="638.67,-439.61 644.86,-433.39 640.08,-435.86 641.49,-432.12 641.49,-432.12 641.49,-432.12 640.08,-435.86 638.12,-430.85 638.67,-439.61 638.67,-439.61"/>
<text text-anchor="middle" x="386.5" y="-612" font-family="Helvetica,sans-Serif" font-size="10.00" fill="#444441">categorizes</text>
</g>
<!-- DROP_OFF_ITEM -->
<g id="node10" class="node">
<title>DROP_OFF_ITEM</title>
<polygon fill="#993c1d" stroke="transparent" points="618,-622 618,-644 711,-644 711,-622 618,-622"/>
<text text-anchor="start" x="623" y="-631.2" font-family="Helvetica,sans-Serif" font-weight="bold" font-size="11.00" fill="white">Drop Off Item</text>
<text text-anchor="start" x="623" y="-609.8" font-family="Helvetica,sans-Serif" font-size="9.00" fill="#444441">new</text>
<text text-anchor="start" x="623" y="-588.2" font-family="Helvetica,sans-Serif" font-size="11.00">lbs</text>
<polygon fill="none" stroke="#993c1d" points="616.5,-579 616.5,-645 711.5,-645 711.5,-579 616.5,-579"/>
</g>
<!-- FRUIT_TYPE&#45;&gt;DROP_OFF_ITEM -->
<g id="edge12" class="edge">
<title>FRUIT_TYPE&#45;&gt;DROP_OFF_ITEM</title>
<path fill="none" stroke="#73726c" d="M143.52,-625.99C164.11,-631.64 187.93,-637.21 210,-640 357.27,-658.64 396.55,-657.11 544,-640 565.31,-637.53 588.35,-632.64 608.42,-627.63"/>
<polygon fill="#73726c" stroke="#73726c" points="608.49,-627.61 617.14,-629.13 612.37,-626.63 616.25,-625.64 616.25,-625.64 616.25,-625.64 612.37,-626.63 615.36,-622.15 608.49,-627.61 608.49,-627.61"/>
<text text-anchor="middle" x="386.5" y="-656" font-family="Helvetica,sans-Serif" font-size="10.00" fill="#444441">categorizes</text>
</g>
<!-- TREE&#45;&gt;HARVEST_ITEM -->
<g id="edge9" class="edge">
<title>TREE&#45;&gt;HARVEST_ITEM</title>
<path fill="none" stroke="#73726c" d="M436.75,-329.54C478.23,-334.21 538.28,-340.97 586.08,-346.35"/>
<polygon fill="#73726c" stroke="#73726c" points="586.3,-346.37 593.85,-350.84 590.28,-346.82 594.25,-347.26 594.25,-347.26 594.25,-347.26 590.28,-346.82 594.66,-343.69 586.3,-346.37 586.3,-346.37"/>
<text text-anchor="middle" x="508" y="-344" font-family="Helvetica,sans-Serif" font-size="10.00" fill="#444441">yields</text>
</g>
<!-- HARVEST&#45;&gt;EVENT -->
<g id="edge8" class="edge">
<title>HARVEST&#45;&gt;EVENT</title>
<path fill="none" stroke="#73726c" d="M429.04,-175.36C465.92,-176.56 521.16,-178.37 568.71,-179.92"/>
<polygon fill="#73726c" stroke="#73726c" points="568.89,-179.93 576.76,-183.78 572.88,-180.06 576.88,-180.19 576.88,-180.19 576.88,-180.19 572.88,-180.06 577,-176.59 568.89,-179.93 568.89,-179.93"/>
<text text-anchor="middle" x="508" y="-182" font-family="Helvetica,sans-Serif" font-size="10.00" fill="#444441">syncs to</text>
</g>
<!-- HARVEST&#45;&gt;VOLUNTEER_SHIFT -->
<g id="edge7" class="edge">
<title>HARVEST&#45;&gt;VOLUNTEER_SHIFT</title>
<path fill="none" stroke="#73726c" d="M429.04,-154.4C473.1,-133.61 543.38,-100.44 595.43,-75.89"/>
<polygon fill="#73726c" stroke="#73726c" points="595.73,-75.74 604.5,-75.58 599.35,-74.03 602.97,-72.33 602.97,-72.33 602.97,-72.33 599.35,-74.03 601.43,-69.07 595.73,-75.74 595.73,-75.74"/>
<text text-anchor="middle" x="508" y="-134" font-family="Helvetica,sans-Serif" font-size="10.00" fill="#444441">attendance for</text>
</g>
<!-- HARVEST&#45;&gt;HARVEST_ITEM -->
<g id="edge6" class="edge">
<title>HARVEST&#45;&gt;HARVEST_ITEM</title>
<path fill="none" stroke="#73726c" d="M429.04,-201.29C470.91,-228.8 536.45,-271.86 587.52,-305.41"/>
<polygon fill="#73726c" stroke="#73726c" points="587.63,-305.48 592.33,-312.88 590.97,-307.68 594.31,-309.87 594.31,-309.87 594.31,-309.87 590.97,-307.68 596.29,-306.86 587.63,-305.48 587.63,-305.48"/>
<text text-anchor="middle" x="508" y="-278" font-family="Helvetica,sans-Serif" font-size="10.00" fill="#444441">contains</text>
</g>
<!-- DROP_OFF&#45;&gt;DROP_OFF_ITEM -->
<g id="edge13" class="edge">
<title>DROP_OFF&#45;&gt;DROP_OFF_ITEM</title>
<path fill="none" stroke="#73726c" d="M439.32,-499.96C487.8,-524.24 559.93,-560.37 609.08,-584.99"/>
<polygon fill="#73726c" stroke="#73726c" points="609.3,-585.1 614.85,-591.91 612.88,-586.9 616.46,-588.69 616.46,-588.69 616.46,-588.69 612.88,-586.9 618.07,-585.47 609.3,-585.1 609.3,-585.1"/>
<text text-anchor="middle" x="508" y="-554" font-family="Helvetica,sans-Serif" font-size="10.00" fill="#444441">contains</text>
</g>
</g>
</svg>
